<svg version="1.1" id="Layer_1" xmlns="http://www.w3.org/2000/svg" xmlns:xlink="http://www.w3.org/1999/xlink" x="0px" y="0px"
	 viewBox="0 0 200 200" style="enable-background:new 0 0 200 200;" xml:space="preserve">

<path fill="white" class="st0" d="M100,2.5C44.8,2.5,0,47.2,0,102.5c0,44.2,28.7,81.7,68.4,94.9c5,0.9,6.8-2.2,6.8-4.8c0-2.4-0.1-8.7-0.1-17
	c-27.8,6-33.7-13.4-33.7-13.4c-4.5-11.6-11.1-14.6-11.1-14.6c-9.1-6.2,0.7-6.1,0.7-6.1c10,0.7,15.3,10.3,15.3,10.3
	c8.9,15.3,23.4,10.9,29.1,8.3c0.9-6.5,3.5-10.9,6.3-13.4c-22.2-2.5-45.6-11.1-45.6-49.4c0-10.9,3.9-19.8,10.3-26.8
	c-1-2.5-4.5-12.7,1-26.5c0,0,8.4-2.7,27.5,10.3c8-2.2,16.5-3.3,25-3.4c8.5,0,17,1.1,25,3.4c19.1-12.9,27.5-10.3,27.5-10.3
	c5.5,13.8,2,23.9,1,26.5c6.4,7,10.3,15.9,10.3,26.8c0,38.4-23.4,46.9-45.7,49.3c3.6,3.1,6.8,9.2,6.8,18.5c0,13.4-0.1,24.2-0.1,27.4
	c0,2.7,1.8,5.8,6.9,4.8c39.7-13.2,68.3-50.7,68.3-94.9C200,47.2,155.2,2.5,100,2.5z"/>
</svg>
