<svg version="1.1" id="Layer_1" xmlns="http://www.w3.org/2000/svg" xmlns:xlink="http://www.w3.org/1999/xlink" x="0px" y="0px" viewBox="0 0 300 300" xml:space="preserve">
	<path fill="#fff" d="M274.1,300c-14.3,0-25.9-11.6-25.9-25.9V119c0-14.3,11.6-25.9,25.9-25.9S300,104.7,300,119v155.2
	C300,288.4,288.4,300,274.1,300z M212.1,300c-14.3,0-25.9-11.6-25.9-25.9V25.9c0-14.3,11.6-25.9,25.9-25.9s25.9,11.6,25.9,25.9
	v248.3C237.9,288.4,226.3,300,212.1,300z M150,300c-14.3,0-25.9-11.6-25.9-25.9V25.9C124.1,11.6,135.7,0,150,0s25.9,11.6,25.9,25.9
	v248.3C175.9,288.4,164.3,300,150,300z M87.9,300c-14.3,0-25.9-11.6-25.9-25.9V25.9C62.1,11.6,73.7,0,87.9,0s25.9,11.6,25.9,25.9
	v248.3C113.8,288.4,102.2,300,87.9,300z M25.9,206.9C11.6,206.9,0,195.3,0,181V25.9C0,11.6,11.6,0,25.9,0s25.9,11.6,25.9,25.9V181
	C51.7,195.3,40.1,206.9,25.9,206.9z"/>
</svg>
