<svg version="1.1" id="Layer_1" xmlns="http://www.w3.org/2000/svg" xmlns:xlink="http://www.w3.org/1999/xlink" x="0px" y="0px" viewBox="0 0 300 300" xml:space="preserve">
<path fill="#fff" d="M210,222.5c-6.9,0-12.5-5.6-12.5-12.5v-75c0-6.9,5.6-12.5,12.5-12.5s12.5,5.6,12.5,12.5v75
	C222.5,216.9,216.9,222.5,210,222.5z M180,222.5c-6.9,0-12.5-5.6-12.5-12.5V90c0-6.9,5.6-12.5,12.5-12.5s12.5,5.6,12.5,12.5v120
	C192.5,216.9,186.9,222.5,180,222.5z M150,222.5c-6.9,0-12.5-5.6-12.5-12.5V90c0-6.9,5.6-12.5,12.5-12.5s12.5,5.6,12.5,12.5v120
	C162.5,216.9,156.9,222.5,150,222.5z M120,222.5c-6.9,0-12.5-5.6-12.5-12.5V90c0-6.9,5.6-12.5,12.5-12.5s12.5,5.6,12.5,12.5v120
	C132.5,216.9,126.9,222.5,120,222.5z M90,177.5c-6.9,0-12.5-5.6-12.5-12.5V90c0-6.9,5.6-12.5,12.5-12.5s12.5,5.6,12.5,12.5v75
	C102.5,171.9,96.9,177.5,90,177.5z"/>
</svg>
