<svg version="1.1" id="Layer_1" xmlns="http://www.w3.org/2000/svg" xmlns:xlink="http://www.w3.org/1999/xlink" x="0px" y="0px"
	 viewBox="0 0 300 300" style="fill:currentcolor; enable-background:new 0 0 300 300;" xml:space="preserve">

  <path fill="white" d="M272.5,217.5h-49c7.6-14.8,10.4-31.3,8.4-47.7c0-0.1,0-0.3-0.1-0.4c-0.1-1.1-0.3-2.2-0.5-3.3c-0.1-0.7-0.3-1.4-0.4-2.2
    c-0.1-0.5-0.2-1.1-0.3-1.6c-0.2-1-0.5-2.1-0.7-3.1c-0.1-0.2-0.1-0.4-0.2-0.7c0,0,0-0.1,0-0.1c-0.3-1-0.6-2-0.9-3
    c-0.1-0.3-0.2-0.7-0.3-1c-0.2-0.8-0.5-1.5-0.8-2.3c-0.2-0.6-0.4-1.2-0.6-1.8c-0.2-0.4-0.3-0.8-0.5-1.3c-0.4-0.9-0.8-1.9-1.2-2.8
    c0-0.1-0.1-0.2-0.1-0.3c-1.4-3.1-2.9-6-4.6-8.9L160.2,32.7l-39,22.5l24.5,42.4c-1.3,0.1-2.6,0.2-4,0.3c-0.1,0-0.2,0-0.3,0
    c-1,0.1-2,0.2-3.1,0.4c-0.4,0.1-0.9,0.1-1.3,0.2c-0.6,0.1-1.3,0.2-1.9,0.3c-0.8,0.1-1.6,0.3-2.3,0.4c-0.4,0.1-0.7,0.2-1.1,0.2
    c-1,0.2-2,0.5-3,0.7c-0.1,0-0.1,0-0.2,0c-0.2,0.1-0.5,0.1-0.7,0.2c-1,0.3-2,0.6-3,0.9c-0.5,0.2-1.1,0.4-1.6,0.5
    c-0.7,0.2-1.4,0.5-2,0.7c-1.1,0.4-2.1,0.8-3.1,1.2c-0.1,0-0.2,0.1-0.4,0.1c-15.9,6.7-29.2,18.1-38.3,33c-0.1,0.1-0.1,0.2-0.2,0.4
    c-0.3,0.4-0.5,0.9-0.8,1.3L17.3,244.8l39,22.5l24.5-42.4c9,14,21.9,24.7,37.1,31.1c0.1,0.1,0.3,0.1,0.4,0.2c1,0.4,2,0.8,3.1,1.2
    c0.7,0.3,1.4,0.5,2.1,0.7c0.5,0.2,1,0.4,1.6,0.5c1,0.3,2,0.6,3,0.9c0.2,0.1,0.4,0.1,0.7,0.2c0.1,0,0.1,0,0.2,0
    c0.5,0.1,1.1,0.3,1.6,0.4c0.7,0.2,1.4,0.3,2.1,0.5c0.4,0.1,0.9,0.2,1.3,0.3c1.2,0.2,2.3,0.4,3.5,0.6c0.2,0,0.3,0,0.5,0.1
    c4.1,0.6,8.3,1,12.4,1c0.7,0,1.5,0,2.2,0h120.2V217.5z M149,217.5c-6-0.2-11.8-1.7-17.1-4.6c-0.2-0.1-0.5-0.3-0.7-0.4
    c-0.2-0.1-0.5-0.3-0.7-0.4c-5.1-3.1-9.4-7.4-12.5-12.5c0-0.1-0.1-0.1-0.1-0.2c-3.4-5.6-5.4-12.3-5.4-19.3c0-7.1,2-13.7,5.4-19.3
    c0-0.1,0.1-0.1,0.1-0.2c4.1-6.6,10.2-11.9,17.4-15c0.1,0,0.1,0,0.2-0.1c0.5-0.2,0.9-0.4,1.4-0.6c0.3-0.1,0.6-0.2,0.9-0.3
    c0.2-0.1,0.5-0.2,0.7-0.2c0.5-0.1,0.9-0.3,1.4-0.4c0.1,0,0.2-0.1,0.4-0.1c0.5-0.1,0.9-0.2,1.4-0.3c0.2,0,0.3-0.1,0.5-0.1
    c0.3-0.1,0.7-0.1,1-0.2c0.3-0.1,0.6-0.1,0.9-0.2c0.2,0,0.4-0.1,0.6-0.1c0.5-0.1,1-0.1,1.4-0.2c0,0,0,0,0.1,0
    c1.2-0.1,2.5-0.2,3.8-0.2h0.9c6.2,0.1,12.3,1.8,17.8,5c5.6,3.2,10.1,7.7,13.3,13l0.4,0.7c0.6,1.1,1.2,2.2,1.7,3.3c0,0,0,0.1,0.1,0.1
    c0.2,0.4,0.4,0.8,0.5,1.3c0.1,0.2,0.2,0.4,0.2,0.6c0.1,0.3,0.2,0.5,0.3,0.8c0.1,0.3,0.2,0.7,0.4,1c0,0.2,0.1,0.3,0.1,0.5
    c0.1,0.4,0.3,0.9,0.4,1.4c0,0.1,0.1,0.3,0.1,0.4c0.1,0.5,0.2,0.9,0.3,1.4c0.1,0.3,0.1,0.5,0.2,0.8c0.1,0.3,0.1,0.6,0.2,1
    c0.1,0.5,0.2,1,0.2,1.5c0,0.1,0,0.1,0,0.2c1,7.8-0.6,15.7-4.3,22.6c0,0,0,0.1-0.1,0.1c-3.2,5.8-7.9,10.8-14.1,14.4
    c-6.1,3.5-12.8,5.1-19.4,5C149.2,217.5,149.1,217.5,149,217.5z"/>
</svg>