<?xml version="1.0" encoding="UTF-8" standalone="no"?>
<!DOCTYPE svg PUBLIC "-//W3C//DTD SVG 1.1//EN" "http://www.w3.org/Graphics/SVG/1.1/DTD/svg11.dtd">
<svg width="100%" height="100%" viewBox="0 0 426 426" version="1.1" xmlns="http://www.w3.org/2000/svg" xmlns:xlink="http://www.w3.org/1999/xlink" xml:space="preserve" xmlns:serif="http://www.serif.com/" style="fill-rule:evenodd;clip-rule:evenodd;stroke-linejoin:round;stroke-miterlimit:2;">
    <g id="Stamp-Vector-S2.0" serif:id="Stamp Vector S2.0" transform="matrix(1.33313,0,0,1.33313,-22.4256,-14.3478)">
        <path d="M286.591,271.789C340.754,225.748 337.537,126.47 296.587,79.67C251.028,27.602 172.345,21.422 110.594,50.394C87.503,61.227 47.203,99.187 36.12,124.674C5.03,196.178 45.656,259.016 97.36,290.514C145.529,319.859 242.924,308.908 286.591,271.789ZM126.195,105.693C126.158,105.8 126.126,105.909 126.098,106.021C120.444,128.372 113.027,159.17 108.192,174.363C92.902,183.859 66.252,202.352 51.311,211.551C49.353,212.756 48.742,215.325 49.947,217.283C50.654,218.432 51.829,219.117 53.076,219.244C53.139,219.252 53.203,219.258 53.267,219.263C132.608,225.22 208.922,211.197 303.536,220.234C305.341,220.406 306.989,219.397 307.713,217.84C308.588,216.057 308.083,213.848 306.423,212.639C275.972,190.457 268.352,183.865 249.887,172.061C244.504,148.962 237.681,118.098 234.948,107.557C234.619,106.289 233.74,105.31 232.632,104.807C232.305,104.629 231.948,104.491 231.567,104.404C209.727,99.396 150.188,98.38 129.294,102.87C127.777,103.196 126.632,104.311 126.195,105.693ZM227.49,112.058C205.771,107.812 154.838,106.9 133.553,110.538C127.778,133.46 120.398,163.897 115.711,178.197C115.55,178.689 115.306,179.13 114.999,179.511C114.676,179.996 114.245,180.421 113.715,180.746C101.755,188.09 81.866,201.715 66.508,211.739C137.325,215.284 206.617,204.66 289.694,210.708C268.278,194.909 260.643,188.757 244.046,178.221C243.178,177.67 242.582,176.85 242.3,175.938C242.205,175.716 242.128,175.483 242.072,175.241C237.021,153.627 230.583,124.542 227.49,112.058ZM136.241,178.907C136.361,179.821 136.784,180.701 137.505,181.384C163.224,205.758 201.235,198.104 219.853,181.345C220,181.239 220.142,181.121 220.278,180.993C221.055,180.26 221.487,179.298 221.569,178.31C221.675,177.176 221.318,176.004 220.487,175.101C220.356,174.96 220.218,174.829 220.074,174.709C195.839,149.432 158.56,149.831 137.141,175.496C136.319,176.481 136.029,177.735 136.241,178.907ZM211.188,177.686C201.398,168.817 189.554,164.385 177.954,164.414C166.353,164.444 154.996,168.935 146.181,177.916C166.847,194.636 195.075,189.749 211.188,177.686ZM183.909,183.535C189.83,178.968 186.804,171.337 182.946,169.208C181.497,168.408 179.938,168.148 178.32,168.162C176.767,168.176 175.372,168.342 173.952,169.025C169.503,171.163 168.382,174.576 168.794,177.529C169.349,181.499 173.564,185.541 179.252,185.215C181.35,185.095 182.839,184.41 183.909,183.535ZM215.395,155.518C217.627,152.107 218.679,150.052 219.888,147.44C220.854,145.353 219.944,142.874 217.857,141.908C215.77,140.942 213.292,141.853 212.326,143.939C211.276,146.208 210.361,147.992 208.423,150.953C207.163,152.877 207.702,155.462 209.626,156.721C211.55,157.981 214.135,157.442 215.395,155.518ZM150.822,150.971C149.824,149.257 147.63,146.4 145.34,144.132C143.706,142.514 141.065,142.527 139.447,144.161C137.829,145.795 137.842,148.435 139.476,150.053C141.195,151.756 142.871,153.877 143.62,155.164C144.777,157.151 147.33,157.825 149.317,156.668C151.305,155.511 151.979,152.958 150.822,150.971ZM194.434,146.574C196.005,140.357 197.407,134.5 198.192,127.541C198.449,125.256 196.803,123.191 194.518,122.934C192.233,122.676 190.169,124.322 189.911,126.607C189.172,133.163 187.834,138.676 186.355,144.533C185.792,146.763 187.144,149.03 189.374,149.593C191.604,150.156 193.871,148.804 194.434,146.574ZM171.975,144.42C170.907,139.254 169.751,134.158 168.158,129.972C167.34,127.823 164.931,126.742 162.782,127.56C160.633,128.378 159.552,130.787 160.37,132.936C161.821,136.749 162.841,141.401 163.814,146.107C164.28,148.359 166.486,149.81 168.738,149.344C170.99,148.878 172.44,146.672 171.975,144.42Z" style="fill:white;"/>
    </g>
</svg>
