<svg xmlns="http://www.w3.org/2000/svg" baseProfile="full" version="1.1" width="310px" height="310px" style="stroke:none; fill: #fff">
<path class="st0" d="M198,26c-47.5,0-86,38.5-86,86h86V26z M112,284c47.5,0,86-38.5,86-86h-86V284z M69,112c23.8,0,43,19.3,43,43
	l0,0c0,23.8-19.3,43-43,43l0,0c-23.8,0-43-19.3-43-43l0,0C26,131.2,45.3,112,69,112L69,112z M155,112c23.8,0,43,19.3,43,43l0,0
	c0,23.8-19.3,43-43,43l0,0c-23.8,0-43-19.3-43-43l0,0C112,131.2,131.2,112,155,112L155,112z M241,112c23.8,0,43,19.3,43,43l0,0
	c0,23.8-19.3,43-43,43l0,0c-23.8,0-43-19.3-43-43l0,0C198,131.2,217.2,112,241,112L241,112"/>
<path class="st0" d="M112,26c47.5,0,86,38.5,86,86h-86V26z M198,284c-47.5,0-86-38.5-86-86h86V284z M26,26c47.5,0,86,38.5,86,86H26
	V26z M26,284c47.5,0,86-38.5,86-86H26V284z M284,26c-47.5,0-86,38.5-86,86h86V26z M284,284c-47.5,0-86-38.5-86-86h86V284z"/>
</svg>
